# xmcd
#
# Track frame offsets:
#	150
#	13320
#	26677
#	38005
#	50087
#	62702
#	73760
#	84632
#	96137
#	105732
#	115830
#	126872
#	139727
#	149805
#	160237
#	170840
#	182110
#	194497
#	205070
#	215597
#
# Disc length: 3014 seconds
#
# Revision: 2
# Processed by: cddbd v1.5.2PL0 Copyright (c) Steve Scherf et al.
# Submitted via: EasyCDDAExtractor 11.1.0.1
#
DISCID=390bc414
DTITLE=Various Artist - Country Classics Vol. 3
DYEAR=2004
DGENRE=Country
TTITLE0=Patti Page - Tennessee Waltz
TTITLE1=Kenny Rogers - Shine On Ruby Mountain
TTITLE2=Jeannie C. Riley - Box Of Memories
TTITLE3=Johny Cash - I Walk The Line
TTITLE4=Hank Williams - I Don´T Care
TTITLE5=Patsy Cline - A Stranger In My Arm
TTITLE6=Donna - Fargo - Wishful Thinking
TTITLE7=Ed Bruce - Baby That´S Good
TTITLE8=Dave Dudley - Last Days In The Mine
TTITLE9=Mickey Gilley - I Miss You So
TTITLE10=Faron Young - All Right
TTITLE11=Billie Jo Spierce - He´S One The Run Again
TTITLE12=Leroy Van  Dyke - Walk On By
TTITLE13=Willie Nelson - Blame It On The Time
TTITLE14=Freddy Fender - A Man Can Cry
TTITLE15=Hank Locklin - Send Me The Pillow You Dream On
TTITLE16=Ed Bruce - Sweet Woman
TTITLE17=Waylon Jennings - Burning Memories
TTITLE18=Jerry Wallace - Empty Arms Again
TTITLE19=Kenny Rogers - Good Time Liberator
EXTD=YEAR: 2004
EXTT0=
EXTT1=
EXTT2=
EXTT3=
EXTT4=
EXTT5=
EXTT6=
EXTT7=
EXTT8=
EXTT9=
EXTT10=
EXTT11=
EXTT12=
EXTT13=
EXTT14=
EXTT15=
EXTT16=
EXTT17=
EXTT18=
EXTT19=
PLAYORDER=
